<?xml version="1.0" encoding="utf-8"?>
<!-- Generator: Adobe Illustrator 16.0.0, SVG Export Plug-In . SVG Version: 6.00 Build 0)  -->
<!DOCTYPE svg PUBLIC "-//W3C//DTD SVG 1.1//EN" "http://www.w3.org/Graphics/SVG/1.1/DTD/svg11.dtd">
<svg version="1.1" id="Layer_1" xmlns="http://www.w3.org/2000/svg" xmlns:xlink="http://www.w3.org/1999/xlink" x="0px" y="0px"
	 width="56px" height="56px" viewBox="0 0 56 56" enable-background="new 0 0 56 56" xml:space="preserve">
<path fill="#FFFFFF" d="M19.982,20.739c0-4.342-3.338-4.101-3.338-4.101L7.99,16.65v8.176h8.68
	C16.673,24.827,19.982,25.08,19.982,20.739z M37.629,12.257h12.262v3.502H37.629V12.257z M19.998,45.486H0V10.518h19.998
	c0,0,7.707-0.114,7.819,8.456c0,0,0.226,5.372-4.691,7.657c0,0,6.032-0.343,6.253,9.028C29.605,45.028,19.998,45.486,19.998,45.486z
	 M44.656,39.907c0,0,3.629,0.635,5.016-2.806h6.295c0,0,0.642,8.249-10.988,8.249c-11.634,0-13.021-8.776-13.021-13.773
	c0-4.996,2.453-12.885,12.381-12.885c9.496,0,12.059,7.185,11.633,14.293H38.684C38.681,32.984,39,39.907,44.656,39.907z
	 M44.39,24.024c-4.641,0-5.387,4.997-5.387,4.997h10.778C49.781,29.021,49.032,24.024,44.39,24.024z M16.86,30.959H7.994v8.175
	l8.874-0.024c0,0,5.113,0.279,5.113-4.063C21.98,30.704,16.86,30.959,16.86,30.959z"/>
</svg>
