<?xml version="1.0" encoding="utf-8"?>
<!-- Generator: Adobe Illustrator 16.0.0, SVG Export Plug-In . SVG Version: 6.00 Build 0)  -->
<!DOCTYPE svg PUBLIC "-//W3C//DTD SVG 1.1//EN" "http://www.w3.org/Graphics/SVG/1.1/DTD/svg11.dtd">
<svg version="1.1" id="Layer_1" xmlns="http://www.w3.org/2000/svg" xmlns:xlink="http://www.w3.org/1999/xlink" x="0px" y="0px"
	 width="960px" height="691.109px" viewBox="0 0 960 691.109" enable-background="new 0 0 960 691.109" xml:space="preserve">
<g>
	<g>
		<path fill-rule="evenodd" clip-rule="evenodd" fill="#FFFFFF" d="M930,682.818c-299.8,0-599.6,0-899.4,0c0-200,0-400,0-600
			c300,0,600,0,900,0c0,199.8,0,399.6,0,599.4C930.4,682.419,930.2,682.619,930,682.818z M498.62,602.443
			c-0.758-0.109-1.516-0.22-2.327-0.338c-0.162,0.187-0.349,0.4-0.528,0.607c0.145,0.19,0.233,0.389,0.386,0.493
			c0.231,0.158,0.506,0.252,0.875,0.427c0.519-0.412,1.035-0.822,1.551-1.231c0.113-0.115,0.62,0.032,0.264-0.396
			C498.767,602.152,498.693,602.298,498.62,602.443z M529.817,334.239l-0.036-0.035c0.039,0.56-0.86,0.961-0.134,1.77
			c1.024,0.378,2.351-0.16,3.622,0.293c-1.4,2.629-2.734,5.131-4.1,7.695c2.487-0.264,3.381-0.633,6.235-2.529
			c0.768-1.15,1.535-2.3,2.335-3.497c0.608-0.07,1.195-0.122,1.777-0.212c0.541-0.083,1.075-0.208,1.809-0.353
			c-0.589-0.813-1.1-1.519-1.705-2.356c0.927-0.95,1.868-1.961,2.858-2.92c1.22-1.181,1.884-2.552,1.646-4.278
			c-0.025-0.184-0.143-0.356-0.277-0.676c-0.28-0.047-0.642-0.109-0.903-0.153c-2.385,1.708-4.514,3.492-6.428,5.527
			c-0.319,0.339-0.69,0.631-1.033,0.941c-0.772-0.73-1.493-1.226-2.491-1.29c0.563-0.734,1.181-1.384,1.608-2.141
			c0.481-0.851,0.792-1.799,1.204-2.77c1.121-0.097,2.188-0.19,3.48-0.302c-0.3-0.498-0.523-0.79-0.661-1.118
			c-0.182-0.432-0.297-0.893-0.491-1.498c1.795-1.215,3.495-2.438,4.781-4.346c0.194-0.688,0.495-1.533,0.654-2.404
			c0.081-0.442,0.082-1.015-0.692-1.257c-2.621,2.125-5.306,4.303-8.145,6.604c-0.81-0.784-1.729-1.048-2.741-0.6
			c-1.614,1.434-2.253,2.413-2.192,3.357c0.101,0.164,0.201,0.327,0.302,0.49c0.61-0.048,1.242-0.637,1.919,0.064
			c-0.97,1.684-1.886,3.335-2.867,4.947c-0.41,0.675-0.974,1.255-1.441,1.897c-0.294,0.405-0.539,0.848-0.126,1.416
			C528.301,334.42,529.059,334.33,529.817,334.239z M58.355,263.676c1.057-3.612-0.203-6.372-2.94-8.665
			c-0.464,0.069-0.835,0.124-1.215,0.18c-0.472,2.422-0.922,4.731-1.373,7.04c0.015,0.535,0.843,1.042,0.015,1.635
			c-1.173-0.357-2.394-0.73-3.682-1.122c-0.395,0.355-0.75,0.675-1.009,0.907c-0.354,1.608-0.176,2.912,0.776,3.784
			c1.753,0.745,2.749-0.869,4.213-0.852c0.205,1.017,0.348,1.981,0.603,2.915c0.234,0.858,0.595,1.681,0.89,2.523
			c0.32,0.912,0.628,1.828,0.977,2.845c1.866-0.096,2.763-1.394,3.749-2.449c0-1.454,0-2.75,0-4.149
			c-0.28-0.642-0.597-1.367-0.903-2.07c0.562-0.629,1.672-0.05,2.108-1.153C59.81,264.578,59.079,264.125,58.355,263.676z
			 M115.707,111.753c3.025,0.01,5.52-1.036,7.657-2.581c0.298-0.716,0.313-1.175-0.282-1.648c-3.836-0.426-7.776-0.155-11.611,0.873
			c-3.018,0.809-6.033,1.744-8.858,3.433c1.513,1.728,3.485,0.69,5.222,1.26c-0.961,0.633-1.844,1.197-2.76,2.015
			c1.289,0.688,2.4,1.28,3.544,1.89c0.468,0,0.986,0.09,1.458-0.019c0.952-0.219,1.879-0.546,2.204-0.644
			c1.598-1.003,0.755-1.95,0.861-2.73c0.086-0.124,0.125-0.23,0.201-0.281C114.08,112.823,114.824,112.336,115.707,111.753z
			 M40.755,650.322c4.663-1.586,4.872-1.778,7.335-6.838c0.675,0,1.417,0,2.1,0c0.646-0.862-0.432-1.528-0.113-2.348
			c0.611-0.452,1.202-1.019,1.898-1.378c2.359-1.218,2.822-3.449,3.166-5.742c0.093-0.622-0.177-1.143-0.827-1.279
			c-1.97,2.614-4.627,4.366-7.251,6.157c-0.072,0.049-0.193,0.039-0.291,0.035c-0.094-0.004-0.187-0.037-0.307-0.063
			c-0.566-0.507-1.149-1.028-1.814-1.624c-0.835,1.103-1.614,2.116-2.37,3.148c-0.103,0.14-0.084,0.367-0.125,0.568
			c0.6,0.949,1.707,0.199,2.438,0.713c0.023,1.187-0.976,1.856-1.425,2.805c-0.427,0.9-0.867,1.795-1.341,2.671
			c-0.513,0.947-1.071,1.87-1.604,2.792C40.452,650.103,40.604,650.213,40.755,650.322z M150.502,345.729
			c0.168-0.594,0.429-1.447,0.643-2.312c0.07-0.283,0.024-0.597,0.014-0.896c-0.019-0.52-0.119-0.984-0.58-0.97
			c-1.392,1.211-2.568,2.433-3.938,3.37c-1.375,0.941-2.438,2.312-4.024,3.069c-0.584-0.673-1.092-1.256-1.544-1.775
			c-0.333,0.026-0.526,0.042-0.872,0.069c-0.307,0.508-0.656,1.094-1.014,1.676c-0.343,0.558-0.695,1.111-1.152,1.841
			c1.014,0.341,1.825,0.613,2.87,0.964c-1.949,2.426-2.981,5.269-4.522,7.87c1.198,0.609,2.012-0.312,2.917-0.544
			c1.475-0.38,2.619-1.375,3.253-2.857c0.352-0.821,0.779-1.612,1.198-2.402c0.086-0.162,0.291-0.261,0.513-0.452
			c0.585-0.097,1.251-0.208,1.79-0.297c0.717-0.798-0.027-1.413,0.038-2.218C147.417,348.564,149.375,347.773,150.502,345.729z
			 M320.276,403.742c4.357,0.421,7.313-1.113,9.171-4.326c1-0.622,2.025,0.02,2.858-0.774c0.096-0.562,0.21-1.229,0.333-1.954
			c1.091-0.703,2.211-1.348,3.245-2.109c1.593-1.175,2.655-2.688,2.582-4.779c-0.014-0.389-0.1-0.784-0.837-0.96
			c-0.85,0.551-1.515,1.59-2.469,2.261c-1.053,0.741-2.163,1.401-3.243,2.104c-0.984,0.641-1.961,1.291-2.909,1.915
			c-0.791-0.477-1.542-0.928-2.318-1.396c-1.037,0.971-2.523,1.278-3.172,2.888c0.757,0.064,1.339,0.107,1.92,0.164
			c0.386,0.038,0.808,0.043,0.852,0.642c-0.82,1.065-1.586,2.232-2.527,3.235C322.827,401.65,321.716,402.482,320.276,403.742z
			 M328.684,262.685c1.305,0.154,2.446,0.29,3.767,0.446c-0.274,0.987-0.445,1.844-0.752,2.649
			c-0.353,0.924-0.843,1.794-1.241,2.701c-0.336,0.769-0.978,1.431-1.03,2.597c1.509-0.465,2.8-0.863,3.831-1.181
			c1.972-1.311,2.641-3.235,3.598-5.077c0.76,0.437,1.426,0.834,2.11,1.198c0.118,0.063,0.314-0.02,0.557-0.043
			c0-0.698,0-1.382,0-2.085c-0.275-0.447-0.561-0.914-0.876-1.427c1.624-0.651,2.881-1.583,3.807-3.004
			c-0.078-0.709-0.16-1.456-0.254-2.308c-0.347-0.128-0.689-0.253-0.974-0.358c-1.957,1.729-3.992,3.092-6.207,4.249
			c-0.732-0.453-1.393-0.862-2.051-1.27C331.069,259.997,329.478,260.529,328.684,262.685z M251.09,397.265
			c-0.414,0.104-0.695,0.196-0.983,0.243c-0.278,0.047-0.563,0.047-0.9,0.072c-1.486-1.863-2.766-3.963-5.457-4.581
			c-0.886,0.104-1.967-0.362-3.15,0.3c1.891,1.989,3.974,3.656,5.146,6.107c-0.943,0.158-1.79,0.3-2.678,0.448
			c0.672,1.497,0.761,1.569,3.415,2.823c0.591-0.393,1.229-0.817,1.929-1.284c2.813,2.172,6.058,3.535,8.621,5.92
			c0.101,0.095,0.367,0.013,0.619,0.013c0.112-0.204,0.25-0.453,0.401-0.729c-0.281-0.854-0.557-1.694-0.787-2.393
			c-1.334-2.287-3.686-3.152-5.527-4.622c0.048-0.535,0.089-1.003,0.132-1.481C251.656,397.873,251.457,397.659,251.09,397.265z
			 M104.138,554.163c0.796,1.152,1.792,1.227,2.503,1.929c-1.993,1.898-4.64,2.642-7.024,3.995c1.155,1.389,2.859,0.84,4.122,1.602
			c1.918-0.825,3.74-1.609,5.643-2.429c0.582,0.178,1.227,0.375,1.961,0.6c0.438-0.602,0.839-1.153,1.37-1.883
			c0.703-0.15,1.571-0.314,2.428-0.526c0.96-0.238,1.911-0.521,3.015-0.824c0.736-0.815,1.543-1.692,2.324-2.592
			c0.115-0.133,0.102-0.377,0.166-0.642c-0.104-0.203-0.233-0.458-0.364-0.715c-1.753,0.487-3.44,1.102-5.182,1.4
			c-1.828,0.315-3.6,1.149-5.438,0.873c-0.51-0.645-0.936-1.182-1.297-1.64C106.844,552.975,105.744,553.765,104.138,554.163z
			 M216.463,261.146c-3.602,1.604-7.297,1.822-10.737,2.814c-0.521-0.691-0.932-1.236-1.274-1.689
			c-1.568-0.345-2.817-0.054-4.102,0.998c0.875,0.58,1.599,1.06,2.473,1.639c-2.29,1.511-4.542,2.705-6.952,3.532
			c-0.062,0.229-0.11,0.409-0.186,0.692c1.646,0.742,3.344,1.159,5.405,0.824c1.318-0.644,2.837-1.386,4.275-2.088
			c0.724,0.287,1.356,0.538,2.114,0.84c0.417-0.76,0.784-1.431,1.124-2.051c1.625-0.337,3.177-0.658,4.606-0.955
			C215.955,263.811,216.516,263.063,216.463,261.146z M480.063,368.291c0.668,4.206,1.373,7.885,1.045,11.637
			c-0.607,0.291-1.126,0.541-1.661,0.798c-0.263,1.139-0.163,2.224,0.028,3.295c0.041,0.229,0.363,0.408,0.533,0.586
			c1.143-0.314,1.417-1.402,2.159-2.069c0.659,2.4,1.903,4.581,2.407,7.023c0.062,0.297,0.087,0.805,0.749,0.726
			c0.441-0.941,0.901-1.922,1.311-2.795c0-1.233,0-2.325,0-3.309c-0.291-0.658-0.559-1.192-0.765-1.75
			c-0.204-0.55-0.347-1.123-0.473-1.541c0.272-0.903,0.496-1.643,0.711-2.354c-0.643-0.507-1.175-0.927-1.798-1.418
			c0-1.487,0-2.971,0-3.823c-0.568-2.261-1.669-3.404-2.903-4.434C481.142,368.641,480.749,368.574,480.063,368.291z
			 M404.33,397.863c-0.242-1.047-0.327-1.191-0.925-1.672c-2.461,2.19-2.52,2.271-3.599,5.067c0.674,0.131,1.323,0.258,2.126,0.414
			c-0.221,0.637-0.396,1.175-0.595,1.703c-0.243,0.647-0.489,1.295-0.767,1.928c-0.239,0.546-0.528,1.068-0.79,1.604
			c-0.304,0.624-0.585,1.26-0.908,1.874c-0.248,0.472-0.544,0.917-0.84,1.41c0.259,0.077,0.368,0.15,0.432,0.123
			c0.994-0.435,1.983-0.881,2.829-1.26c2.076-2.178,2.071-2.18,3.295-5.392c0.101-0.263,0.334-0.474,0.494-0.693
			c0.417,0,0.783,0,1.132,0c0.205-0.303,0.368-0.545,0.514-0.762c-0.08-0.508-0.152-0.975-0.262-1.674
			c0.875-0.723,1.797-1.484,2.346-1.938c0.715-1.426,1.203-2.397,1.685-3.356c-0.157-1.099,0.269-2.194-0.348-3.358
			c-1.139,0.97-2.077,1.945-2.899,3.084C406.463,396.057,405.63,397.173,404.33,397.863z M387.25,559.395
			c-0.724,0.827-1.362,1.708-2.152,2.42c-0.877,0.788-1.894,1.422-2.822,2.103c-0.693-0.208-1.332-0.398-2.063-0.617
			c-0.956,0.966-1.869,1.872-2.758,2.801c-0.176,0.184-0.259,0.455-0.438,0.784c0.678,0.13,1.248,0.24,1.901,0.366
			c-0.235,1.387-1.425,2.118-1.995,3.146c-0.186,0.63-0.354,1.194-0.522,1.763c0.645,0.476,1.31,0.324,1.98,0.082
			c1.899-0.685,2.955-2.259,3.752-3.561c0.871-0.789,1.93-0.093,2.394-1.084c-0.127-0.432-0.263-0.893-0.471-1.601
			c1.691-0.814,3.146-1.988,3.654-4.163C387.565,561.169,388.013,560.248,387.25,559.395z M167.005,408.889
			c-0.059-0.327-0.101-0.695-0.194-1.05c-0.334-1.271-0.822-2.462-2.009-3.187c-0.531-0.324-1.101-0.493-1.631,0.238
			c-0.093,1.576-0.178,3.24,0.354,4.769c-0.529,0.854-1.146,0.166-1.862,0.309c-0.243,0.207-0.606,0.516-0.894,0.759
			c-0.1,1.19,0.005,2.138,1.314,2.656c0.622-0.487,1.301-1.019,1.996-1.563c1.043,1.633,1.702,3.426,3.188,4.6
			c0.929-0.476,1.099-1.259,1.287-1.825c0.28-1.65-0.512-2.848-1.044-4.085c0.333-0.844,0.333-0.844,0.227-1.62
			C167.538,408.889,167.341,408.889,167.005,408.889z M231.156,454.1c-2.046,1.16-2.982,3.195-5.156,3.709
			c-0.558-0.151-1.208-0.328-1.795-0.487c-1.364,1.174-1.364,1.174-1.823,2.328c0.73,0.022,1.409,0.051,2.087,0.063
			c0.387,0.007,0.792-0.051,0.994,0.515c-0.443,1.286-0.912,2.643-1.41,4.088c1.348,0.331,2.205-0.582,3.223-0.643
			c0.542-0.57,1.084-1.026,1.477-1.588c0.378-0.54,0.6-1.189,0.839-1.683c0.566-0.229,1.185-0.038,1.323-0.708
			c-0.112-0.367-0.222-0.727-0.332-1.09c0.334-0.4,0.689-0.755,0.957-1.166c0.265-0.407,0.44-0.872,0.701-1.405
			C231.913,455.45,231.585,454.866,231.156,454.1z M219.175,534.25c0.787-0.052,1.551-0.102,2.315-0.152
			c0.1-0.006,0.199-0.017,0.299-0.021c1.036-0.048,1.927-0.487,2.746-1.074c0.793-0.568,1.292-1.32,2.029-2.864
			c0.522-0.545,1.713,0.116,1.896-1.071c-0.248-0.274-0.505-0.56-0.762-0.845c0.774-1.263,1.714-2.442,2.046-4.061
			c-0.301-0.302-0.631-0.634-1.043-1.047c-0.676,0.396-1.259,0.739-1.736,1.021c-0.123,0.448-0.202,0.736-0.309,1.127
			c-1.205,0.897-2.482,1.829-3.734,2.796c-0.303,0.234-0.519,0.581-0.705,0.796c0.151,0.592,0.271,1.063,0.378,1.486
			c-0.57,0.848-1.068,1.59-1.542,2.295C219.462,533.515,219.462,533.515,219.175,534.25z M341.646,494.678
			c0.317-0.995,1.457-1.208,2.282-2.156c0.289-0.877,0.699-1.989,1.011-3.128c0.115-0.421,0.23-0.961-0.413-1.362
			c-1.042,1.008-2.106,2.037-3.173,3.069c-0.569,0.157-1.132,0.313-1.401,0.388c-0.913,0.762-1.599,1.334-2.261,1.887
			c0.177,0.586,0.288,0.954,0.456,1.511c-0.658,1.866-1.383,3.909-2.096,5.956c-0.133,0.383-0.176,0.774,0.223,1.102
			c2.571-0.563,3.167-2.647,3.604-4.778c0.715-0.543,1.89-0.389,2.031-1.621C341.837,495.309,341.752,495.027,341.646,494.678z
			 M434.965,493.93c0.201-1.35-0.034-2.207-1.233-2.472c-1.348,0.567-1.98,1.709-2.647,2.726c-0.692,0.497-1.333,0.957-1.76,1.264
			c-1.187,0.359-2.125,0.643-3.136,0.948c0.209,0.741,0.39,1.383,0.58,2.058c0.851-0.361,1.568-0.666,2.286-0.972
			c0.417,1.001,0.445,1.01,0.244,1.66c-0.23,0.746-0.644,1.474,0.073,2.337c1.083-0.668,2.169-1.339,3.164-1.952
			c0.401-0.962,0.74-1.774,0.995-2.385c0.56-0.421,0.946-0.712,1.385-1.043c-0.333-0.366-0.576-0.632-0.831-0.911
			C434.365,494.785,434.649,494.381,434.965,493.93z M226.855,477.84c0.833-0.152,1.493-0.272,2.158-0.394
			c-0.113-0.512-0.195-0.89-0.287-1.307c1.051-0.399,2.153-0.673,2.664-1.778c0.075-0.163,0.038-0.378,0.063-0.7
			c-0.436-0.119-0.894-0.245-1.371-0.377c-1.291,0.607-2.549,1.198-4.043,1.901c-0.464,0-1.168,0.067-1.852-0.02
			c-0.665-0.084-1.31-0.326-1.896-0.481c-0.597,0.447-1.511,0.441-1.347,1.553c0.69,0.167,1.413,0.341,2.262,0.545
			c-0.463,1.233-1.399,1.871-2.072,2.705c-0.28,0.348-0.3,0.71,0.116,1.002C223.431,480.151,225.541,479.65,226.855,477.84z
			 M375.901,508.829c3.032-0.679,3.905-3.024,4.859-5.334c0.64-0.701,1.298-1.422,2.042-2.235c-0.472-0.379-0.838-0.673-1.175-0.943
			c-1.259,0.353-2.384,0.668-3.556,0.996c-0.114,0.726-0.218,1.396-0.314,2.011c-0.519,0.573-0.985,1.088-1.535,1.695
			C376.327,506.188,375.039,507.254,375.901,508.829z M215.131,438.532c-0.037-0.672-0.068-1.229-0.106-1.921
			c-0.876-0.321-1.583-1.123-2.902-0.892c-0.393,0.444-0.895,1.014-1.519,1.72c-0.953-0.199-1.994-0.417-2.98-0.624
			c-0.538,0.172-0.943,0.391-0.911,1.05c0.998,0.326,2.014,0.657,3.092,1.009c-0.643,1.107-1.68,1.719-2.694,2.523
			c1.674,0.691,2.949-0.585,4.163-0.44C212.788,440.14,213.506,438.585,215.131,438.532z M497.58,601.5l0.156,0.1l0.022-0.158
			L497.58,601.5z"/>
		<path fill-rule="evenodd" clip-rule="evenodd" d="M930,682.818c0.2-0.199,0.4-0.399,0.6-0.6
			C930.717,682.735,930.517,682.936,930,682.818z"/>
		<path fill-rule="evenodd" clip-rule="evenodd" d="M529.817,334.239c-0.759,0.091-1.517,0.181-2.232,0.267
			c-0.413-0.568-0.168-1.011,0.126-1.416c0.468-0.643,1.031-1.223,1.441-1.897c0.981-1.612,1.897-3.264,2.867-4.947
			c-0.677-0.701-1.309-0.112-1.919-0.063c-0.101-0.164-0.201-0.327-0.302-0.491c-0.061-0.944,0.578-1.922,2.192-3.356
			c1.013-0.448,1.932-0.184,2.741,0.6c2.839-2.301,5.523-4.479,8.145-6.604c0.774,0.242,0.773,0.814,0.692,1.257
			c-0.159,0.871-0.46,1.717-0.654,2.404c-1.286,1.908-2.986,3.131-4.781,4.346c0.194,0.605,0.31,1.066,0.491,1.498
			c0.138,0.328,0.361,0.62,0.661,1.118c-1.292,0.112-2.359,0.205-3.48,0.302c-0.412,0.971-0.723,1.919-1.204,2.77
			c-0.428,0.757-1.046,1.407-1.608,2.141c0.998,0.064,1.719,0.56,2.491,1.29c0.343-0.311,0.714-0.602,1.033-0.941
			c1.914-2.035,4.043-3.819,6.428-5.527c0.262,0.044,0.623,0.106,0.903,0.153c0.135,0.32,0.252,0.492,0.277,0.676
			c0.237,1.726-0.427,3.097-1.646,4.278c-0.99,0.959-1.932,1.97-2.858,2.92c0.605,0.838,1.116,1.543,1.705,2.356
			c-0.733,0.145-1.268,0.269-1.809,0.353c-0.582,0.09-1.169,0.142-1.777,0.212c-0.8,1.197-1.567,2.347-2.336,3.497
			c-2.854,1.897-3.747,2.266-6.234,2.53c1.365-2.564,2.699-5.066,4.1-7.695c-1.271-0.454-2.598,0.084-3.622-0.293
			c-0.727-0.809,0.173-1.21,0.134-1.77c0.11-0.114,0.631,0.044,0.259-0.391C529.966,333.955,529.892,334.098,529.817,334.239z"/>
		<path fill-rule="evenodd" clip-rule="evenodd" d="M58.355,263.676c0.724,0.449,1.455,0.902,2.209,1.37
			c-0.436,1.103-1.546,0.523-2.108,1.153c0.306,0.703,0.623,1.428,0.903,2.07c0,1.399,0,2.695,0,4.149
			c-0.986,1.055-1.883,2.353-3.749,2.449c-0.349-1.017-0.657-1.933-0.977-2.845c-0.295-0.842-0.656-1.666-0.89-2.523
			c-0.255-0.934-0.397-1.897-0.603-2.915c-1.464-0.017-2.459,1.597-4.213,0.852c-0.952-0.872-1.131-2.176-0.776-3.784
			c0.258-0.232,0.614-0.551,1.009-0.907c1.288,0.392,2.509,0.765,3.682,1.122c0.829-0.593,0-1.1-0.015-1.635
			c0.45-2.309,0.9-4.618,1.373-7.04c0.38-0.057,0.751-0.111,1.215-0.18C58.152,257.304,59.412,260.063,58.355,263.676z"/>
		<path fill-rule="evenodd" clip-rule="evenodd" d="M115.707,111.753c-0.883,0.583-1.627,1.07-2.366,1.567
			c-0.076,0.051-0.115,0.158-0.201,0.281c-0.106,0.78,0.737,1.727-0.861,2.73c-0.324,0.098-1.251,0.425-2.204,0.644
			c-0.472,0.108-0.989,0.019-1.458,0.019c-1.144-0.609-2.255-1.202-3.544-1.89c0.916-0.818,1.799-1.382,2.76-2.015
			c-1.736-0.57-3.708,0.468-5.222-1.26c2.825-1.688,5.84-2.624,8.858-3.433c3.835-1.028,7.775-1.299,11.611-0.873
			c0.595,0.473,0.581,0.932,0.282,1.648C121.227,110.717,118.732,111.763,115.707,111.753z"/>
		<path fill-rule="evenodd" clip-rule="evenodd" d="M40.755,650.322c-0.151-0.109-0.303-0.22-0.529-0.383
			c0.532-0.922,1.091-1.845,1.604-2.792c0.474-0.876,0.914-1.771,1.341-2.671c0.45-0.948,1.448-1.618,1.425-2.806
			c-0.73-0.513-1.837,0.237-2.438-0.712c0.041-0.201,0.022-0.429,0.125-0.568c0.755-1.032,1.535-2.046,2.37-3.148
			c0.665,0.596,1.248,1.117,1.814,1.624c0.12,0.026,0.212,0.06,0.307,0.063c0.097,0.004,0.218,0.014,0.291-0.035
			c2.624-1.791,5.281-3.543,7.251-6.157c0.65,0.137,0.92,0.657,0.827,1.279c-0.344,2.293-0.807,4.524-3.166,5.742
			c-0.697,0.359-1.287,0.926-1.898,1.378c-0.318,0.819,0.76,1.485,0.113,2.348c-0.683,0-1.425,0-2.1,0
			C45.627,648.544,45.418,648.736,40.755,650.322z"/>
		<path fill-rule="evenodd" clip-rule="evenodd" d="M150.502,345.729c-1.127,2.044-3.085,2.835-4.411,4.136
			c-0.064,0.805,0.68,1.42-0.038,2.218c-0.539,0.089-1.205,0.2-1.79,0.297c-0.223,0.191-0.427,0.29-0.513,0.452
			c-0.419,0.791-0.847,1.581-1.198,2.402c-0.635,1.483-1.778,2.478-3.253,2.857c-0.904,0.233-1.719,1.153-2.917,0.544
			c1.541-2.601,2.573-5.444,4.522-7.87c-1.045-0.351-1.856-0.624-2.87-0.964c0.458-0.73,0.809-1.283,1.152-1.841
			c0.357-0.582,0.707-1.168,1.014-1.676c0.346-0.028,0.54-0.043,0.872-0.069c0.452,0.52,0.959,1.103,1.544,1.775
			c1.586-0.758,2.648-2.128,4.024-3.069c1.371-0.938,2.547-2.159,3.938-3.37c0.461-0.014,0.562,0.45,0.58,0.97
			c0.01,0.299,0.056,0.613-0.014,0.896C150.932,344.282,150.67,345.135,150.502,345.729z"/>
		<path fill-rule="evenodd" clip-rule="evenodd" d="M320.276,403.742c1.439-1.26,2.551-2.092,3.487-3.09
			c0.941-1.003,1.707-2.17,2.527-3.235c-0.044-0.599-0.466-0.604-0.852-0.642c-0.581-0.057-1.164-0.1-1.92-0.164
			c0.649-1.609,2.136-1.917,3.172-2.888c0.775,0.468,1.527,0.919,2.318,1.396c0.947-0.624,1.924-1.274,2.909-1.915
			c1.08-0.703,2.19-1.363,3.243-2.104c0.955-0.671,1.62-1.71,2.469-2.261c0.737,0.176,0.823,0.571,0.837,0.96
			c0.073,2.092-0.989,3.604-2.582,4.779c-1.034,0.762-2.154,1.406-3.245,2.109c-0.124,0.726-0.237,1.393-0.333,1.954
			c-0.833,0.794-1.859,0.152-2.858,0.774C327.589,402.629,324.634,404.163,320.276,403.742z"/>
		<path fill-rule="evenodd" clip-rule="evenodd" d="M328.684,262.685c0.794-2.155,2.385-2.688,4.284-2.912
			c0.658,0.407,1.319,0.816,2.051,1.27c2.215-1.157,4.25-2.521,6.207-4.249c0.285,0.105,0.627,0.23,0.974,0.358
			c0.094,0.852,0.176,1.599,0.254,2.308c-0.926,1.422-2.183,2.353-3.807,3.004c0.315,0.513,0.602,0.979,0.876,1.427
			c0,0.703,0,1.387,0,2.085c-0.243,0.023-0.438,0.105-0.557,0.043c-0.685-0.363-1.351-0.761-2.11-1.198
			c-0.958,1.841-1.626,3.766-3.598,5.077c-1.031,0.318-2.321,0.715-3.831,1.181c0.052-1.166,0.693-1.828,1.03-2.597
			c0.398-0.907,0.888-1.777,1.241-2.701c0.307-0.805,0.479-1.662,0.752-2.649C331.13,262.975,329.989,262.839,328.684,262.685z"/>
		<path fill-rule="evenodd" clip-rule="evenodd" d="M251.09,397.265c0.367,0.395,0.566,0.608,0.779,0.837
			c-0.043,0.479-0.084,0.946-0.132,1.481c1.842,1.47,4.193,2.335,5.527,4.622c0.229,0.698,0.506,1.538,0.787,2.393
			c-0.152,0.275-0.289,0.524-0.401,0.729c-0.251,0-0.518,0.082-0.619-0.013c-2.563-2.385-5.809-3.748-8.621-5.92
			c-0.7,0.467-1.338,0.892-1.929,1.284c-2.654-1.254-2.743-1.326-3.415-2.823c0.888-0.148,1.735-0.29,2.678-0.448
			c-1.172-2.451-3.255-4.118-5.146-6.107c1.183-0.662,2.265-0.195,3.15-0.3c2.691,0.618,3.971,2.718,5.457,4.581
			c0.338-0.025,0.623-0.025,0.9-0.072C250.395,397.461,250.676,397.369,251.09,397.265z"/>
		<path fill-rule="evenodd" clip-rule="evenodd" d="M104.138,554.163c1.606-0.398,2.706-1.188,4.226-0.852
			c0.362,0.458,0.787,0.995,1.297,1.64c1.837,0.276,3.61-0.558,5.438-0.873c1.742-0.299,3.429-0.913,5.182-1.4
			c0.131,0.257,0.26,0.512,0.364,0.715c-0.064,0.265-0.051,0.509-0.166,0.642c-0.78,0.899-1.587,1.776-2.324,2.592
			c-1.104,0.304-2.054,0.586-3.015,0.824c-0.856,0.212-1.725,0.376-2.428,0.526c-0.531,0.729-0.932,1.281-1.37,1.883
			c-0.734-0.225-1.379-0.422-1.961-0.6c-1.903,0.819-3.725,1.604-5.643,2.429c-1.263-0.762-2.967-0.213-4.122-1.602
			c2.385-1.354,5.032-2.097,7.024-3.995C105.931,555.39,104.934,555.315,104.138,554.163z"/>
		<path fill-rule="evenodd" clip-rule="evenodd" d="M216.463,261.146c0.052,1.918-0.508,2.665-3.252,4.557
			c-1.429,0.296-2.981,0.618-4.606,0.955c-0.34,0.62-0.708,1.291-1.124,2.051c-0.758-0.302-1.391-0.553-2.114-0.84
			c-1.438,0.702-2.958,1.444-4.275,2.088c-2.061,0.334-3.759-0.082-5.405-0.824c0.076-0.283,0.124-0.464,0.186-0.692
			c2.41-0.827,4.663-2.021,6.952-3.532c-0.875-0.58-1.598-1.059-2.473-1.639c1.285-1.052,2.534-1.343,4.102-0.998
			c0.342,0.453,0.753,0.998,1.274,1.689C209.167,262.968,212.861,262.75,216.463,261.146z"/>
		<path fill-rule="evenodd" clip-rule="evenodd" d="M480.063,368.291c0.686,0.284,1.078,0.351,1.343,0.571
			c1.234,1.03,2.335,2.173,2.903,4.434c0,0.852,0,2.336,0,3.823c0.623,0.492,1.155,0.912,1.798,1.418
			c-0.215,0.711-0.438,1.451-0.711,2.354c0.126,0.418,0.269,0.991,0.473,1.541c0.206,0.558,0.474,1.092,0.765,1.75
			c0,0.983,0,2.075,0,3.309c-0.409,0.873-0.869,1.854-1.311,2.795c-0.662,0.079-0.688-0.429-0.749-0.726
			c-0.504-2.442-1.748-4.623-2.407-7.023c-0.742,0.667-1.017,1.755-2.159,2.069c-0.169-0.178-0.492-0.356-0.533-0.586
			c-0.19-1.071-0.291-2.156-0.028-3.295c0.535-0.257,1.054-0.507,1.661-0.798C481.437,376.176,480.731,372.496,480.063,368.291z"/>
		<path fill-rule="evenodd" clip-rule="evenodd" d="M404.33,397.863c1.3-0.69,2.133-1.807,2.919-2.896
			c0.823-1.139,1.76-2.114,2.899-3.084c0.616,1.164,0.191,2.26,0.348,3.358c-0.482,0.959-0.97,1.931-1.685,3.356
			c-0.549,0.453-1.471,1.215-2.346,1.938c0.11,0.699,0.183,1.166,0.262,1.674c-0.146,0.217-0.309,0.459-0.514,0.762
			c-0.349,0-0.716,0-1.132,0c-0.16,0.22-0.393,0.431-0.494,0.693c-1.224,3.212-1.219,3.214-3.295,5.392
			c-0.846,0.379-1.835,0.825-2.829,1.26c-0.064,0.027-0.172-0.046-0.432-0.123c0.296-0.493,0.592-0.938,0.84-1.41
			c0.323-0.614,0.604-1.25,0.908-1.874c0.262-0.536,0.551-1.059,0.79-1.604c0.278-0.633,0.524-1.28,0.767-1.928
			c0.199-0.528,0.374-1.066,0.595-1.703c-0.803-0.156-1.452-0.283-2.126-0.414c1.08-2.796,1.138-2.877,3.599-5.067
			C404.003,396.672,404.088,396.816,404.33,397.863z"/>
		<path fill-rule="evenodd" clip-rule="evenodd" d="M387.25,559.395c0.763,0.854,0.315,1.774,0.458,2.439
			c-0.508,2.175-1.963,3.349-3.654,4.163c0.208,0.708,0.344,1.169,0.471,1.601c-0.463,0.991-1.523,0.295-2.394,1.084
			c-0.797,1.302-1.853,2.876-3.752,3.561c-0.671,0.242-1.335,0.394-1.98-0.082c0.168-0.568,0.336-1.133,0.522-1.763
			c0.57-1.028,1.76-1.76,1.995-3.146c-0.653-0.126-1.223-0.236-1.901-0.366c0.179-0.329,0.262-0.601,0.438-0.784
			c0.889-0.929,1.802-1.835,2.758-2.801c0.731,0.219,1.37,0.409,2.063,0.617c0.928-0.681,1.945-1.314,2.822-2.103
			C385.888,561.103,386.526,560.222,387.25,559.395z"/>
		<path fill-rule="evenodd" clip-rule="evenodd" d="M167.005,408.889c0.336,0,0.533,0,0.731,0c0.106,0.776,0.106,0.776-0.227,1.62
			c0.533,1.237,1.324,2.435,1.044,4.085c-0.188,0.566-0.358,1.35-1.287,1.825c-1.486-1.174-2.145-2.967-3.188-4.6
			c-0.695,0.545-1.374,1.076-1.996,1.563c-1.309-0.519-1.414-1.466-1.314-2.656c0.287-0.243,0.651-0.552,0.894-0.759
			c0.716-0.143,1.333,0.545,1.862-0.309c-0.533-1.528-0.447-3.192-0.354-4.769c0.531-0.731,1.1-0.563,1.631-0.238
			c1.187,0.725,1.674,1.915,2.009,3.187C166.904,408.193,166.946,408.562,167.005,408.889z"/>
		<path fill-rule="evenodd" clip-rule="evenodd" d="M231.156,454.1c0.43,0.767,0.757,1.351,1.084,1.933
			c-0.26,0.533-0.436,0.998-0.701,1.405c-0.267,0.411-0.622,0.766-0.957,1.166c0.11,0.363,0.22,0.723,0.332,1.09
			c-0.138,0.67-0.757,0.479-1.323,0.708c-0.239,0.493-0.461,1.143-0.839,1.683c-0.393,0.562-0.935,1.018-1.477,1.588
			c-1.018,0.061-1.875,0.974-3.223,0.643c0.499-1.445,0.967-2.802,1.41-4.088c-0.203-0.565-0.607-0.508-0.994-0.515
			c-0.679-0.012-1.357-0.04-2.087-0.063c0.458-1.154,0.458-1.154,1.823-2.328c0.587,0.159,1.237,0.336,1.795,0.487
			C228.173,457.295,229.11,455.26,231.156,454.1z"/>
		<path fill-rule="evenodd" clip-rule="evenodd" d="M219.175,534.25c0.287-0.735,0.287-0.735,1.878-1.615
			c0.474-0.705,0.972-1.447,1.542-2.295c-0.107-0.423-0.227-0.895-0.378-1.486c0.186-0.215,0.401-0.562,0.705-0.796
			c1.251-0.967,2.529-1.898,3.734-2.796c0.107-0.391,0.186-0.679,0.309-1.127c0.477-0.281,1.06-0.624,1.736-1.021
			c0.412,0.413,0.742,0.745,1.043,1.047c-0.333,1.618-1.272,2.798-2.046,4.061c0.257,0.285,0.514,0.57,0.762,0.845
			c-0.182,1.188-1.373,0.526-1.896,1.071c-0.737,1.544-1.235,2.296-2.029,2.864c-0.818,0.587-1.709,1.026-2.746,1.074
			c-0.1,0.005-0.2,0.016-0.299,0.021C220.726,534.148,219.962,534.198,219.175,534.25z"/>
		<path fill-rule="evenodd" clip-rule="evenodd" d="M341.646,494.678c0.105,0.35,0.19,0.631,0.262,0.866
			c-0.142,1.232-1.316,1.078-2.031,1.621c-0.437,2.131-1.033,4.215-3.604,4.778c-0.399-0.327-0.356-0.719-0.223-1.102
			c0.713-2.047,1.438-4.09,2.096-5.956c-0.168-0.557-0.279-0.925-0.456-1.511c0.663-0.553,1.349-1.125,2.261-1.887
			c0.269-0.074,0.832-0.23,1.401-0.388c1.067-1.032,2.131-2.062,3.173-3.069c0.643,0.401,0.528,0.941,0.413,1.362
			c-0.312,1.139-0.722,2.251-1.011,3.128C343.104,493.47,341.964,493.683,341.646,494.678z"/>
		<path fill-rule="evenodd" clip-rule="evenodd" d="M434.965,493.93c-0.316,0.451-0.6,0.855-0.881,1.258
			c0.255,0.279,0.498,0.545,0.831,0.911c-0.439,0.331-0.826,0.622-1.385,1.043c-0.254,0.61-0.593,1.423-0.995,2.385
			c-0.995,0.613-2.082,1.284-3.164,1.952c-0.717-0.863-0.303-1.591-0.073-2.337c0.201-0.65,0.173-0.659-0.244-1.66
			c-0.717,0.306-1.435,0.61-2.286,0.972c-0.19-0.675-0.371-1.316-0.58-2.058c1.011-0.306,1.949-0.589,3.136-0.948
			c0.428-0.307,1.068-0.767,1.76-1.264c0.667-1.017,1.299-2.158,2.647-2.726C434.932,491.723,435.167,492.58,434.965,493.93z"/>
		<path fill-rule="evenodd" clip-rule="evenodd" d="M226.855,477.84c-1.315,1.811-3.424,2.312-5.606,2.649
			c-0.416-0.292-0.396-0.654-0.116-1.002c0.673-0.834,1.609-1.472,2.072-2.705c-0.849-0.204-1.571-0.378-2.262-0.545
			c-0.164-1.111,0.75-1.105,1.347-1.553c0.586,0.155,1.231,0.397,1.896,0.481c0.684,0.087,1.388,0.02,1.852,0.02
			c1.495-0.703,2.752-1.294,4.043-1.901c0.477,0.132,0.935,0.258,1.371,0.377c-0.025,0.322,0.012,0.537-0.063,0.7
			c-0.511,1.105-1.613,1.379-2.664,1.778c0.092,0.417,0.174,0.795,0.287,1.307C228.348,477.567,227.688,477.688,226.855,477.84z"/>
		<path fill-rule="evenodd" clip-rule="evenodd" d="M375.901,508.829c-0.862-1.575,0.426-2.641,0.321-3.811
			c0.549-0.607,1.016-1.122,1.535-1.695c0.096-0.614,0.2-1.285,0.314-2.011c1.172-0.328,2.296-0.644,3.556-0.996
			c0.337,0.271,0.703,0.564,1.175,0.943c-0.743,0.813-1.401,1.534-2.042,2.235C379.806,505.805,378.933,508.15,375.901,508.829z"/>
		<path fill-rule="evenodd" clip-rule="evenodd" d="M215.131,438.532c-1.625,0.053-2.343,1.607-3.856,2.425
			c-1.214-0.145-2.489,1.132-4.163,0.44c1.014-0.805,2.051-1.416,2.694-2.523c-1.078-0.352-2.094-0.683-3.092-1.009
			c-0.032-0.659,0.373-0.878,0.911-1.05c0.987,0.207,2.028,0.425,2.98,0.624c0.624-0.706,1.126-1.275,1.519-1.72
			c1.318-0.231,2.026,0.57,2.902,0.892C215.063,437.303,215.094,437.86,215.131,438.532z"/>
		<path fill-rule="evenodd" clip-rule="evenodd" d="M498.576,602.401c-0.516,0.409-1.032,0.819-1.551,1.231
			c-0.369-0.175-0.644-0.269-0.875-0.427c-0.152-0.104-0.241-0.303-0.386-0.493c0.18-0.207,0.366-0.421,0.528-0.607
			c0.812,0.118,1.569,0.229,2.327,0.338L498.576,602.401z"/>
		<polygon fill-rule="evenodd" clip-rule="evenodd" points="497.58,601.5 497.759,601.441 497.736,601.6 		"/>
		<path fill-rule="evenodd" clip-rule="evenodd" d="M498.62,602.443c0.073-0.146,0.146-0.291,0.22-0.438
			c0.356,0.428-0.15,0.28-0.264,0.396L498.62,602.443z"/>
		<path fill-rule="evenodd" clip-rule="evenodd" fill="#FFFFFF" d="M529.817,334.239c0.074-0.142,0.148-0.284,0.223-0.426
			c0.372,0.435-0.148,0.276-0.259,0.391L529.817,334.239z"/>
	</g>
</g>
</svg>
