<?xml version="1.0" encoding="utf-8"?>
<!-- Generator: Adobe Illustrator 16.0.0, SVG Export Plug-In . SVG Version: 6.00 Build 0)  -->
<!DOCTYPE svg PUBLIC "-//W3C//DTD SVG 1.1//EN" "http://www.w3.org/Graphics/SVG/1.1/DTD/svg11.dtd">
<svg version="1.1" id="Layer_1" xmlns="http://www.w3.org/2000/svg" xmlns:xlink="http://www.w3.org/1999/xlink" x="0px" y="0px"
	 width="56px" height="56px" viewBox="0 0 56 56" enable-background="new 0 0 56 56" xml:space="preserve">
<path fill="#FFFFFF" d="M27.886,0.083c7.108-0.028,13.613,2.609,18.571,6.968c-0.5,0.717-4.688,6.389-14.618,10.153
	C27.221,8.808,22.112,1.917,21.335,0.885C23.437,0.37,25.628,0.092,27.886,0.083z M16.006,2.784
	c0.741,1.009,5.768,7.908,10.437,16.121C13.374,22.431,1.85,22.426,0.598,22.413C2.376,13.733,8.197,6.504,16.006,2.784z
	 M0.03,28.141c-0.001-0.286,0.003-0.572,0.01-0.854c1.227,0.021,14.779,0.141,28.731-4.092c0.808,1.562,1.581,3.15,2.287,4.733
	c-0.369,0.107-0.738,0.219-1.102,0.338C15.552,32.982,7.932,45.711,7.296,46.797C2.808,41.861,0.06,35.317,0.03,28.141z
	 M28.114,55.976c-6.466,0.032-12.435-2.154-17.193-5.831c0.5-1.025,6.119-11.984,21.873-17.54c0.061-0.022,0.125-0.037,0.186-0.062
	c3.968,10.179,5.626,18.718,6.052,21.173C35.679,55.153,31.988,55.959,28.114,55.976z M43.723,51.133
	c-0.292-1.698-1.821-9.875-5.514-19.903c8.759-1.438,16.464,0.825,17.424,1.125C54.42,40.135,49.98,46.869,43.723,51.133z
	 M36.486,26.833c-0.199-0.479-0.399-0.958-0.607-1.441c-0.588-1.36-1.216-2.711-1.873-4.042
	c10.327-4.259,14.986-10.282,15.573-11.079c3.915,4.74,6.298,10.786,6.387,17.383C55.043,27.462,45.789,25.624,36.486,26.833z"/>
</svg>
