<?xml version="1.0" encoding="utf-8"?>
<!-- Generator: Adobe Illustrator 16.0.0, SVG Export Plug-In . SVG Version: 6.00 Build 0)  -->
<!DOCTYPE svg PUBLIC "-//W3C//DTD SVG 1.1//EN" "http://www.w3.org/Graphics/SVG/1.1/DTD/svg11.dtd">
<svg version="1.1" id="Layer_1" xmlns="http://www.w3.org/2000/svg" xmlns:xlink="http://www.w3.org/1999/xlink" x="0px" y="0px"
	 width="56px" height="56px" viewBox="0 0 56 56" enable-background="new 0 0 56 56" xml:space="preserve">
<g id="Layer_1_1_">
	<g>
		<path fill="#FFFFFF" d="M42.834,9.283l-5.373-0.001c-4.211,0-4.996,1.962-4.996,4.839v6.35h10.014l-1.309,9.905h-8.705v25.532
			H21.961v-25.53h-8.794v-9.905h8.797v-7.333c0-8.506,5.296-13.114,13.042-13.114c3.711,0,6.896,0.246,7.828,0.367V9.283z"/>
	</g>
	<g>
		<path fill="#FFFFFF" d="M42.834,9.283l-5.373-0.001c-4.211,0-4.996,1.962-4.996,4.839v6.35h10.014l-1.309,9.905h-8.705v25.532
			H21.961v-25.53h-8.794v-9.905h8.797v-7.333c0-8.506,5.296-13.114,13.042-13.114c3.711,0,6.896,0.246,7.828,0.367V9.283z"/>
	</g>
</g>
</svg>
