<?xml version="1.0" encoding="utf-8"?>
<!-- Generator: Adobe Illustrator 16.0.0, SVG Export Plug-In . SVG Version: 6.00 Build 0)  -->
<!DOCTYPE svg PUBLIC "-//W3C//DTD SVG 1.1//EN" "http://www.w3.org/Graphics/SVG/1.1/DTD/svg11.dtd">
<svg version="1.1" id="Layer_1" xmlns="http://www.w3.org/2000/svg" xmlns:xlink="http://www.w3.org/1999/xlink" x="0px" y="0px"
	 width="56px" height="56px" viewBox="0 0 56 56" enable-background="new 0 0 56 56" xml:space="preserve">
<path fill="#FFFFFF" d="M11.667,42h7V21h-7V42z M15.167,11.667c-1.932,0-3.5,1.568-3.5,3.5c0,1.932,1.568,3.5,3.5,3.5
	c1.932,0,3.5-1.568,3.5-3.5C18.667,13.235,17.099,11.667,15.167,11.667z M37.333,21c-5.696,0-7,3.5-7,3.5V21h-7v21h7V30.334
	c0,0-0.101-3.882,3.815-3.882c2.414,0,3.185,1.286,3.185,3.882V42h7V30.334C44.333,24.396,41.718,21,37.333,21z M56,49
	c0,3.865-3.135,7-7,7H7c-3.866,0-7-3.135-7-7V7c0-3.866,3.134-7,7-7h42c3.865,0,7,3.134,7,7V49z"/>
</svg>
