<?xml version="1.0" encoding="utf-8"?>
<!-- Generator: Adobe Illustrator 16.0.0, SVG Export Plug-In . SVG Version: 6.00 Build 0)  -->
<!DOCTYPE svg PUBLIC "-//W3C//DTD SVG 1.1//EN" "http://www.w3.org/Graphics/SVG/1.1/DTD/svg11.dtd">
<svg version="1.1" xmlns="http://www.w3.org/2000/svg" xmlns:xlink="http://www.w3.org/1999/xlink" x="0px" y="0px"
	 width="684.537px" height="295.742px" viewBox="0 0 684.537 295.742" enable-background="new 0 0 684.537 295.742"
	 xml:space="preserve">
<g id="x" display="none">
	<rect x="-217.791" y="-400.758" display="inline" fill="#ED1C24" width="1000" height="1000"/>
	<g display="inline">
		<rect x="188.715" y="289.759" width="41.606" height="64.497"/>
		<rect x="262.248" y="285.472" width="41.605" height="64.497"/>
		<rect x="335.78" y="289.759" width="41.605" height="64.497"/>
		<rect x="409.313" y="286.969" width="41.605" height="64.497"/>
		<rect x="482.845" y="289.76" width="41.605" height="64.497"/>
		<rect x="556.378" y="286.597" width="41.605" height="64.497"/>
		<rect x="629.91" y="287.256" width="41.605" height="64.497"/>
		<rect x="-59.167" y="256.85" width="183.975" height="39.005"/>
	</g>
	
		<image overflow="visible" opacity="0.6" width="2448" height="3264" xlink:href="C:\Users\matisse\Dropbox\IMG_20141020_132458.jpg"  transform="matrix(0 -1 1 0 -1349.791 1323.2417)">
	</image>
	<g display="inline">
		<path fill="#FFFFFF" d="M32.82-21.136c36.592,0,70.994,14.25,96.869,40.124s40.124,60.276,40.124,96.869
			s-14.25,70.994-40.124,96.869S69.413,252.85,32.82,252.85s-70.994-14.25-96.869-40.124s-40.124-60.276-40.124-96.869
			s14.25-70.994,40.124-96.869S-3.772-21.136,32.82-21.136 M32.82-25.136c-77.868,0-140.993,63.125-140.993,140.993
			S-45.048,256.85,32.82,256.85s140.993-63.125,140.993-140.993S110.688-25.136,32.82-25.136L32.82-25.136z"/>
	</g>
	<g display="inline">
		<path fill="#FFFFFF" d="M32.82-7.636c32.986,0,63.998,12.846,87.323,36.17s36.17,54.336,36.17,87.323s-12.846,63.998-36.17,87.323
			s-54.336,36.17-87.323,36.17s-63.998-12.846-87.323-36.17s-36.17-54.336-36.17-87.323s12.846-63.998,36.17-87.323
			S-0.166-7.636,32.82-7.636 M32.82-11.636c-70.413,0-127.493,57.081-127.493,127.493S-37.592,243.35,32.82,243.35
			s127.493-57.081,127.493-127.493S103.233-11.636,32.82-11.636L32.82-11.636z"/>
	</g>
	<g display="inline">
		<path fill="#FFFFFF" d="M370.586,298.76c10.472,0,18.991,8.519,18.991,18.99s-8.52,18.99-18.991,18.99
			c-10.471,0-18.989-8.519-18.989-18.99S360.115,298.76,370.586,298.76 M370.586,294.76c-12.696,0-22.989,10.293-22.989,22.99
			s10.293,22.99,22.989,22.99c12.698,0,22.991-10.293,22.991-22.99S383.284,294.76,370.586,294.76L370.586,294.76z"/>
	</g>
	<g display="inline">
		<path fill="#FFFFFF" d="M648.054,298.827c10.609,0,19.241,8.631,19.241,19.24s-8.632,19.24-19.241,19.24
			c-10.608,0-19.239-8.631-19.239-19.24S637.445,298.827,648.054,298.827 M648.054,294.827c-12.835,0-23.239,10.405-23.239,23.24
			c0,12.835,10.404,23.24,23.239,23.24c12.837,0,23.241-10.405,23.241-23.24C671.295,305.232,660.891,294.827,648.054,294.827
			L648.054,294.827z"/>
	</g>
	<polyline display="inline" fill="none" stroke="#FFFFFF" stroke-width="4" stroke-miterlimit="10" points="316.207,-23.758 
		226.207,-23.758 226.207,113.992 316.207,113.992 	"/>
	
		<line display="inline" fill="none" stroke="#FFFFFF" stroke-width="4" stroke-miterlimit="10" x1="226.207" y1="68.242" x2="292.207" y2="10.242"/>
	
		<line display="inline" fill="none" stroke="#FFFFFF" stroke-width="4" stroke-miterlimit="10" x1="194.207" y1="218.346" x2="242.601" y2="165.242"/>
	
		<line display="inline" fill="none" stroke="#FFFFFF" stroke-width="4" stroke-miterlimit="10" x1="209.519" y1="203.646" x2="251.903" y2="256.335"/>
	<polyline display="inline" fill="none" stroke="#FFFFFF" stroke-width="4" stroke-miterlimit="10" points="194.207,-25.136 
		194.207,143.242 316.207,143.242 	"/>
	
		<line display="inline" fill="none" stroke="#FFFFFF" stroke-width="4" stroke-miterlimit="10" x1="194.207" y1="165.242" x2="194.207" y2="256.85"/>
	<g display="inline">
		
			<line fill="none" stroke="#FFFFFF" stroke-width="4" stroke-miterlimit="10" x1="578.705" y1="321.248" x2="601.949" y2="295.742"/>
		
			<line fill="none" stroke="#FFFFFF" stroke-width="4" stroke-miterlimit="10" x1="578.705" y1="295.742" x2="578.705" y2="339.742"/>
	</g>
	
		<polyline display="inline" fill="none" stroke="#FFFFFF" stroke-width="4" stroke-linejoin="bevel" stroke-miterlimit="10" points="
		463.209,256.335 337.209,-25.136 337.209,256.85 	"/>
	
		<polyline display="inline" fill="none" stroke="#FFFFFF" stroke-width="4" stroke-linejoin="bevel" stroke-miterlimit="10" points="
		604.378,-25.136 604.378,256.85 604.378,256.335 482.845,-25.136 482.845,256.85 	"/>
	<g display="inline">
		<polyline fill="none" stroke="#FFFFFF" stroke-width="4" stroke-linejoin="bevel" stroke-miterlimit="10" points="
			546.902,295.742 546.902,339.76 546.902,339.68 527.233,295.742 527.233,339.76 		"/>
	</g>
	
		<line display="inline" fill="none" stroke="#FFFFFF" stroke-width="4" stroke-miterlimit="10" x1="337.209" y1="115.6" x2="400.324" y2="115.857"/>
	
		<polyline display="inline" fill="none" stroke="#FFFFFF" stroke-width="4" stroke-linejoin="bevel" stroke-miterlimit="10" points="
		669.938,256.682 628.896,164.997 628.896,256.85 	"/>
	
		<line display="inline" fill="none" stroke="#FFFFFF" stroke-width="4" stroke-miterlimit="10" x1="652.341" y1="119.908" x2="669.938" y2="161.442"/>
	
		<line display="inline" fill="none" stroke="#FFFFFF" stroke-width="4" stroke-miterlimit="10" x1="628.896" y1="210.839" x2="649.454" y2="210.923"/>
	<path display="inline" fill="none" stroke="#FFFFFF" stroke-width="4" stroke-miterlimit="10" d="M310.444,175.284
		c0-13-43.362-16.966-45.259,9.203c-2.833,39.088,54.423,7.307,49.651,51.353c-3.15,29.079-42.414,24.318-51.459,3.736"/>
	<path display="inline" fill="none" stroke="#FFFFFF" stroke-width="4" stroke-miterlimit="10" d="M214.307,301.911
		c0-5.765-20.375-7.524-21.267,4.081c-1.331,17.333,25.573,3.24,23.331,22.772c-1.481,12.896-20.412,11.266-24.662,2.139"/>
	<path display="inline" fill="none" stroke="#FFFFFF" stroke-width="4" stroke-miterlimit="10" d="M628.896,161.92V71.622
		c14.856,0.123,41.321,0.123,41.321,25.399c0,25.657-25,25.784-41.321,25.657"/>
	<g display="inline">
		<path fill="none" stroke="#FFFFFF" stroke-width="4" stroke-miterlimit="10" d="M416.521,340.096v-42.501
			c6.874,0.058,19.12,0.058,19.12,11.955c0,12.076-11.568,12.136-19.12,12.076"/>
	</g>
	<g display="inline">
		<path fill="#FFFFFF" d="M630.55-21.085c10.696,0.89,20.443,5.137,27.775,12.171c8.094,7.765,12.551,18.222,12.551,29.443
			c0,19.232-10.688,39.852-40.326,41.902V-21.085 M626.55-25.261v91.853c33.942-0.399,48.326-22.681,48.326-46.063
			C674.876-4.756,654.233-25.136,626.55-25.261L626.55-25.261z"/>
	</g>
	<g display="inline">
		<path fill="#FFFFFF" d="M308.594,298.96c12.128,0,17.776,6.001,17.776,18.886c0,9.852-1.496,18.694-19.559,18.694
			c-0.441,0-0.894-0.005-1.353-0.017v-37.438C306.547,299.002,307.594,298.96,308.594,298.96 M308.594,294.96
			c-2.189,0-4.563,0.179-7.135,0.55v44.804c1.906,0.153,3.689,0.226,5.353,0.226c22.67,0,23.559-13.553,23.559-22.694
			C330.37,304.088,324.21,294.96,308.594,294.96L308.594,294.96z"/>
	</g>
	<g display="inline">
		
			<line fill="none" stroke="#FFFFFF" stroke-width="4" stroke-miterlimit="10" x1="241.946" y1="295.855" x2="259.727" y2="317.162"/>
		
			<line fill="none" stroke="#FFFFFF" stroke-width="4" stroke-miterlimit="10" x1="259.727" y1="317.162" x2="277.254" y2="295.855"/>
	</g>
</g>
<g id="Layer_3">
</g>
<g id="guide">
	<path fill-rule="evenodd" clip-rule="evenodd" fill="#F5F5F4" d="M576.256,241.254c1.283-0.438,1.732-1.071,1.701-2.194
		c-0.074-2.707-0.023-5.417-0.07-8.125c-0.123-7.096-0.341-14.191-0.395-21.288c-0.145-19.367-0.205-38.735-0.337-58.102
		c-0.107-15.776-0.311-31.552-0.388-47.328c-0.029-6.034,0.285-12.069,0.255-18.103c-0.071-14.55-0.252-29.1-0.389-43.65
		c-0.005-0.526-0.02-1.052-0.008-1.578c0.054-2.299,0.132-2.424,2.497-2.833c1.43-0.247,2.881-0.369,4.634-0.586
		c0.062,1.401,0.146,2.416,0.146,3.43c0.007,50.062,0.006,100.123,0.006,150.184c0,21.918,0,43.836,0,65.754
		c0,0.526,0.021,1.053-0.005,1.578c-0.047,0.931,0.224,2.013-0.97,2.479c-0.863,0.336-2.971-0.388-3.522-1.222
		c-0.434-0.655-0.833-1.341-1.165-2.051c-5.59-11.958-11.296-23.864-16.708-35.901c-5.118-11.385-9.981-22.887-14.855-34.38
		c-8.291-19.554-16.52-39.134-24.738-58.719c-5.042-12.015-10.105-24.022-14.983-36.104c-2.52-6.24-4.604-12.654-6.992-18.948
		c-1.178-3.104-2.594-6.117-3.932-9.158c-0.119-0.27-0.468-0.439-1.169-1.067c-0.108,1.152-0.252,1.841-0.226,2.524
		c0.188,4.981,0.526,9.959,0.599,14.941c0.251,17.429,0.437,34.86,0.599,52.29c0.051,5.509-0.097,11.02-0.072,16.528
		c0.043,9.456,0.186,18.912,0.219,28.368c0.051,13.847,0.235,27.697-0.004,41.54c-0.19,11.022-0.952,22.034-1.408,33.052
		c-0.111,2.705-0.016,5.418-0.016,8.333c-2.019,0-3.802,0-5.923,0c-0.132-0.79-0.399-1.683-0.409-2.58
		c-0.047-4.12-0.021-8.241-0.021-12.361c0-68.297,0-136.595,0-204.892c0-0.961,0-1.923,0-3.032c1.013,0,1.941,0,3.125,0
		c0.941,1.694,2.111,3.447,2.939,5.347c4.302,9.863,8.534,19.757,12.754,29.655c3.937,9.232,7.898,18.454,11.718,27.735
		c3.586,8.715,7.15,17.445,10.465,26.266c13.825,36.8,30.09,72.594,44.852,109.008C574.736,237.739,575.466,239.393,576.256,241.254
		z"/>
	<path fill-rule="evenodd" clip-rule="evenodd" fill="#F2F1F1" d="M260.438,171.962c0-44.673,0-89.182,0-133.844
		c2.122-0.707,4.213-0.725,6.422,0.013c0,4.321-0.043,8.599,0.013,12.876c0.054,4.115,0.304,8.229,0.301,12.344
		c-0.01,9.635-0.187,19.271-0.171,28.906c0.02,12.263,0.155,24.526,0.256,36.789c0.084,10.336,0.175,20.672,0.298,31.008
		c0.022,1.908,0.212,3.814,0.315,5.558c15.223,0.125,30.165,0.348,45.107,0.341c14.956-0.007,29.912-0.245,45.013-0.383
		c0,2.096,0,4.161,0,6.394C325.587,171.962,293.128,171.962,260.438,171.962z"/>
	<path fill-rule="evenodd" clip-rule="evenodd" fill="#F6F6F5" d="M476.381,261.611c-2.314,0-3.971,0.038-5.625-0.012
		c-1.256-0.038-2.027-0.716-2.545-1.901c-3.986-9.114-8.004-18.214-12.046-27.303c-3.021-6.796-6.112-13.561-9.136-20.356
		c-2.518-5.658-4.969-11.346-7.473-17.01c-4.029-9.113-8.093-18.211-12.111-27.33c-1.553-3.523-3.059-7.069-4.511-10.635
		c-0.567-1.394-1.374-1.973-2.955-1.952c-10.682,0.145-21.364,0.194-32.046,0.266c-2.44,0.017-4.88,0.002-7.504,0.002
		c-0.05,0.784-0.14,1.544-0.14,2.305c-0.005,4.792,0.017,9.585,0.019,14.377c0.008,16.029-0.068,32.059,0.046,48.087
		c0.063,8.934,0.484,17.863,0.659,26.797c0.096,4.894,0.018,9.791,0.018,14.795c-2.57,0-4.815,0-7.292,0
		c-0.118-1.58-0.316-3.002-0.316-4.426c-0.016-72.242-0.013-144.484-0.013-216.727c0-0.785,0-1.571,0-2.52c1.007,0,1.928,0,3.125,0
		C409.632,112.393,443.23,186.664,476.381,261.611z M418.315,147.364c-1.877-4.309-3.556-8.33-5.368-12.291
		c-5.59-12.215-11.304-24.374-16.832-36.616c-4.99-11.053-9.795-22.19-14.706-33.28c-0.243-0.551-0.712-1.003-1.075-1.502
		c-0.183,0.068-0.364,0.135-0.546,0.203c0.261,27.781,0.521,55.563,0.782,83.485C393.317,147.364,405.641,147.364,418.315,147.364z"
		/>
	<path fill-rule="evenodd" clip-rule="evenodd" fill="#F2F1F1" d="M285.811,37.999c24.032,0,48.031,0,72.23,0
		c0,1.992,0,3.937,0,6.181c-22.061,0-43.954,0-66.114,0c0,18.754,0,37.211,0,56.209c4.396-2.701,7.458-6.412,11.214-9.241
		c3.844-2.896,7.502-6.041,11.227-9.095c3.72-3.05,7.442-6.098,11.125-9.192c3.668-3.083,7.289-6.221,11.158-9.531
		c1.378,1.494,2.482,2.69,3.813,4.132c-1.229,1.191-2.34,2.402-3.584,3.453c-7.355,6.216-14.771,12.361-22.11,18.595
		c-6.872,5.836-13.634,11.804-20.538,17.6c-1.951,1.638-2.613,3.542-2.593,5.963c0.07,8.053,0.062,16.106,0.081,24.16
		c0.003,1.55,0,3.1,0,4.941c0.912,0,1.765-0.001,2.617,0c19.004,0.036,38.008,0.069,57.012,0.112
		c1.575,0.004,3.155,0.167,4.725,0.086c1.17-0.061,1.666,0.552,1.766,1.484c0.193,1.797,0.236,3.61,0.348,5.538
		c-24.238,0-48.224,0-72.375,0C285.811,112.305,285.811,75.198,285.811,37.999z"/>
	<path fill-rule="evenodd" clip-rule="evenodd" fill="#F5F4F4" d="M603.481,109.092c0-23.712,0-47.165,0-70.654
		c3.819-1.411,7.659-1.585,11.494-1.245c3.039,0.27,6.051,0.887,9.063,1.418c5.193,0.916,8.95,4.087,12.407,7.827
		c4.591,4.967,6.086,11.097,6.771,17.51c0.5,4.685,0.951,9.402,0.936,14.104c-0.01,3.009-0.751,6.052-1.445,9.014
		c-1.258,5.362-3.103,10.488-6.659,14.86c-3.767,4.631-8.695,6.955-14.526,7.336c-3.488,0.228-7.003,0.047-10.506,0.063
		c-1.311,0.006-2.623,0.096-3.933,0.059C605.891,109.35,604.702,109.196,603.481,109.092z M610.084,43.458
		c-0.112,2.109-0.281,4.184-0.321,6.261c-0.196,10.058-0.398,20.115-0.516,30.174c-0.081,6.917-0.003,13.837-0.048,20.755
		c-0.01,1.523,0.346,2.591,2.085,2.66c3.128,0.125,6.335,0.748,9.369,0.273c7.936-1.242,13.336-5.788,15.401-13.718
		c2.266-8.7,3.466-17.489,1.276-26.425c-0.64-2.612-1.094-5.277-1.876-7.843c-1.174-3.853-3.311-6.912-6.931-9.109
		C622.786,43,616.694,42.727,610.084,43.458z"/>
	<path fill-rule="evenodd" clip-rule="evenodd" fill="#F1F0F0" d="M609.299,158.397c0,8.994,0,17.552,0,26.337
		c-1.696,0.979-3.641,0.547-5.73,0.229c0-23.897,0-47.703,0-71.649c3.594,0,7.252-0.186,10.884,0.048
		c4.343,0.279,8.672,0.909,12.745,2.588c6.56,2.704,10.585,7.353,11.531,14.604c0.446,3.419,0.697,6.774,0.059,10.164
		c-1.286,6.83-4.524,12.217-11.467,14.999c0.196,1.008,0.211,1.993,0.577,2.824c2.872,6.524,5.787,13.031,8.752,19.515
		c0.672,1.47,1.655,2.593,3.586,2.587c1.171-0.004,2.754,2.809,2.322,3.865c-0.142,0.346-0.562,0.639-0.922,0.825
		c-2.611,1.35-5.823,0.82-7.438-1.658c-1.895-2.904-3.502-6.014-5.017-9.141c-2.015-4.161-3.815-8.426-5.719-12.642
		c-0.358-0.794-0.771-1.563-1.148-2.349c-0.635-1.319-1.544-1.875-3.124-1.722C615.901,158.141,612.592,158.22,609.299,158.397z
		 M609.185,151.875c5.163,0.864,10.167,0.98,15.286-0.375c4.439-1.175,7.092-3.801,8.514-7.98
		c1.848-5.428,1.367-10.823-0.251-16.187c-0.915-3.032-3.069-5.019-5.799-6.425c-5.667-2.919-11.714-2.808-18.038-2.299
		C609.028,129.736,608.141,140.725,609.185,151.875z"/>
	<path fill-rule="evenodd" clip-rule="evenodd" fill="#F1F0EF" d="M337.648,261.226c-6.889-0.01-13.522-2.671-18.62-8.581
		c-1.213-1.407-1.9-3.296-2.675-5.033c-0.256-0.573-0.163-1.4,0.012-2.045c0.328-1.207,0.903-2.391,2.297-2.604
		c1.435-0.219,1.943,0.989,2.398,2.014c1.98,4.467,5.234,7.665,9.795,9.305c5.434,1.955,10.987,2.183,16.41-0.103
		c2.659-1.121,4.62-3.133,5.776-5.813c1.972-4.569,1.881-9.228,0.243-13.84c-1.01-2.84-3.227-4.681-5.724-6.277
		c-3.694-2.36-7.938-3.119-12.012-4.381c-1.922-0.596-3.869-1.111-5.797-1.691c-7.568-2.278-12.369-8.051-12.982-15.135
		c-0.722-8.339,2.639-14.863,10.077-18.908c9.88-5.371,21.055-2.238,28.038,5.089c1.033,1.084,1.726,2.636,2.179,4.095
		c0.523,1.681-0.205,2.941-1.521,3.509c-1.098,0.473-2.353,0.006-3.36-1.36c-0.827-1.121-1.518-2.342-2.354-3.456
		c-2.109-2.813-5.055-4.301-8.44-4.789c-4.922-0.709-9.614,0.036-13.771,2.97c-7.865,5.552-7.666,17.569,1.842,21.825
		c3.628,1.625,7.594,2.515,11.437,3.634c3.685,1.074,7.462,1.819,10.688,4.125c6.984,4.991,10.061,13.989,7.863,22.307
		C356.809,256.07,348,261.527,337.648,261.226z"/>
	<path fill-rule="evenodd" clip-rule="evenodd" fill="#EDECEB" d="M307.814,188.019c-10.082,9.573-19.972,18.965-30.082,28.566
		c5.826,7.407,11.537,14.678,17.26,21.94c5.721,7.26,11.453,14.511,17.212,21.807c-3.331,1.288-5.637,0.791-7.53-1.567
		c-9.753-12.146-19.497-24.297-29.251-36.441c-0.488-0.607-1.041-1.161-1.629-1.813c-2.479,2.39-4.835,4.741-7.288,6.987
		c-1.048,0.959-1.122,2.091-1.119,3.336c0.022,8.326,0.035,16.652,0.049,24.978c0.002,1.385,0,2.771,0,4.401
		c-1.76,0-3.276,0-5.051,0c0-1.168,0-2.106,0-3.044c0-22.008,0-44.016,0-66.023c0-3.873,0.28-4.148,4.135-4.033
		c0.254,0.007,0.504,0.09,1.031,0.19c0,11.041,0,22.102,0,33.863c1.93-1.627,3.42-2.765,4.775-4.045
		c7.579-7.16,15.123-14.356,22.685-21.534c1.78-1.689,3.63-3.308,5.364-5.042c1.85-1.849,3.972-2.802,6.616-2.539
		C305.857,188.091,306.738,188.019,307.814,188.019z"/>
	<path fill-rule="evenodd" clip-rule="evenodd" fill="#F1F0EF" d="M641.896,260.406c-0.26,0.107-0.414,0.218-0.575,0.23
		c-5.205,0.38-5.212,0.382-7.323-4.336c-3.688-8.236-7.366-16.477-11.051-24.715c-0.214-0.477-0.448-0.945-0.731-1.54
		c-4.501,0-9.022,0-13.73,0c-0.729,10.356-0.233,20.482-0.214,30.796c-1.397,0-2.828,0-4.281,0
		c-0.778-1.865-1.159-53.656-0.487-70.008c2.207-0.075,4.448-0.253,6.677-0.158c0.578,0.025,1.334,0.795,1.641,1.407
		c1.247,2.489,2.414,5.023,3.497,7.589c5.7,13.506,11.271,27.067,17.083,40.524C635.334,246.987,638.684,253.6,641.896,260.406z
		 M608.667,224.825c3.854,0.386,7.521,0.497,11.388-0.037c-3.741-8.354-7.37-16.46-11.093-24.772
		C608.141,202.678,607.949,221.581,608.667,224.825z"/>
	<g>
		<path fill-rule="evenodd" clip-rule="evenodd" fill="#995152" d="M29.699,145.917C31.773,83.111,83.643,38.914,139.639,40.296
			c64.307,1.588,108.768,54.438,106.598,112.5c-2.238,59.91-52.527,106.63-112.754,104.134
			C74.016,254.466,28.206,204.823,29.699,145.917z M238.475,148.896c-0.131-55.388-43.974-99.173-97.613-100.595
			c-56.964-1.51-101.856,43.458-103.268,97.57c-1.498,57.41,44.477,103.304,100.438,103.272
			C193.429,249.111,238.206,204.438,238.475,148.896z"/>
		<path fill-rule="evenodd" clip-rule="evenodd" fill="#F4F3F2" d="M25.326,172.141c6.03,28.289,20.547,51.266,43.524,68.778
			c16.637,12.679,35.471,20.057,56.271,22.549c4.394,0.526,8.769,0.771,13.127,0.776v-7.226c-1.582,0.002-3.169-0.021-4.766-0.088
			c-59.467-2.464-105.276-52.107-103.783-111.014C31.757,83.632,82.787,39.656,138.248,40.28v-6.83
			c-3.905-0.006-7.8,0.202-11.686,0.598c-12.386,1.261-24.291,4.484-35.674,9.569c-1.11,0.496-2.246,0.934-3.371,1.399
			c-0.466,0.363-0.887,0.814-1.404,1.077C70.797,53.877,57.85,64.557,47.299,78.095c-13.793,17.699-21.644,37.82-23.939,60.098
			C22.183,149.596,22.936,160.927,25.326,172.141z"/>
		<path fill-rule="evenodd" clip-rule="evenodd" fill="#E1E0DF" d="M138.248,51.067c52.386,0.122,97.227,42.454,97.42,97.571
			c-0.115,54.24-43.713,97.567-97.42,97.689v2.813c55.297-0.148,99.958-44.774,100.227-100.244
			c-0.131-55.388-43.974-99.173-97.613-100.595c-0.874-0.023-1.745-0.035-2.613-0.036V51.067z"/>
	</g>
</g>
</svg>
