<?xml version="1.0" encoding="utf-8"?>
<!-- Generator: Adobe Illustrator 16.0.0, SVG Export Plug-In . SVG Version: 6.00 Build 0)  -->
<!DOCTYPE svg PUBLIC "-//W3C//DTD SVG 1.1//EN" "http://www.w3.org/Graphics/SVG/1.1/DTD/svg11.dtd">
<svg version="1.1" xmlns="http://www.w3.org/2000/svg" xmlns:xlink="http://www.w3.org/1999/xlink" x="0px" y="0px"
	 width="1256.997px" height="671px" viewBox="0 0 1256.997 671" enable-background="new 0 0 1256.997 671" xml:space="preserve">
<g id="Layer_1" display="none">
	
		<image display="inline" overflow="visible" width="3210" height="1067" xlink:href="../../VIKA business card/EPSON006.JPG"  transform="matrix(0.3009 0 0 0.3009 -1201.9736 135.7871)">
	</image>
</g>
<g id="Layer_2">
	<path fill="#00A098" d="M558.19,313.053c0-14.591-19.532-27.198-48.768-27.198c-47.219,0-57.997,11.591-143.073,11.591
		c-53.532,0-98.768-31.893-98.768-75.325c0-16.795,3.892-30.197,12.386-30.197c15.608,0,21.205,18.724,21.205,34.778
		c0,83.869-104.249,220.286-134.53,250.571c5.035-5.039,25.108-78.719,25.108-129.612c0-139.111-40.491-160.148-88.218-160.148
		c-66.727,0-84.146,97.943-11.761,97.943c-50.443,0-54.289-93.193,11.082-93.193c61.414,0,72.157,84.937,72.157,157.43
		c0,66.959-25.98,146.952-30.135,151.107c17.186,0,161.332-172.583,161.332-275.061c0-25.333-14.027-38.227-26.241-38.227
		s-19.376,14.59-19.376,35.448c0,41.911,46.997,79.234,104.198,79.234c79.397,0,106.914-13.118,145.819-13.118
		C537.752,289.077,558.19,301.29,558.19,313.053z"/>
	<path fill="#00A098" d="M553.44,324.308c0,4.618-3.772,7.293-8.822,7.293c-5.046,0-7.125-3.185-7.125-7.803
		s3.076-6.787,8.122-6.787C550.665,317.011,553.44,319.685,553.44,324.308z"/>
	<path fill="#00A098" d="M320.108,323.805c0,4.723-2.989,7.556-8.151,7.556c-5.159,0-8.75-2.733-8.75-7.456
		c0-4.725,3.789-7.458,8.949-7.458C317.318,316.446,320.108,319.082,320.108,323.805z"/>
	<path fill="#00A098" d="M240.778,385.662c2.122-2.122,39.02-35.966,63.618-35.966c5.26,0-26.975,57.852-18.321,57.852
		c9.802,0,27.119-33.869,46.7-45.692c4.142-2.5,3.293-7.407,7.586-7.407c0,0,6.561,4.522-0.904,4.522
		c-4.833,0-1.855,2.506-6.428,5.621c-18.697,12.744-35.122,45.16-48.481,45.16c-27.314,0,6.571-50.546,6.571-53.025
		c0-7.03-40.109,21.013-52.273,33.178C233.352,395.398,240.778,385.662,240.778,385.662z"/>
	<path fill="#00A098" d="M520.683,409.752c12.776,0,25.653-28.857,43.407-42.216c5.346-4.025-0.385-10.374,5.977-10.374
		c7.464,0,0-3.054,0-3.054c-5.7,0,0.212,6.399-5.189,10.5c-17.91,13.597-33.544,42.939-42.67,42.939
		c-8.65,0,23.585-57.852,18.323-57.852c-5.3,0-11.068,0.723-13.401,2.659C527.129,357.473,493.369,409.752,520.683,409.752z"/>
	<path fill="#00A098" d="M529.613,350.992c-16.904,0-39.808,52.314-50.269,52.314c-8.03,0,13.175-33.022,13.175-42.413
		c0-2.714-13.232,0.084-17.813,0.084c-4.582,0-8.653-3.987-8.653-11.281c0-7.293,11.549-22.054,15.609-22.054
		c2.656,0,2.148,4.872,2.148,5.661c0,8.363-15.11,27.674-30.549,27.674c-15.693,0-14.86-5.853-14.86-8.227
		c0-2.376,1.866-7.238,6.105-7.238c5.223,0,5.431,3.843,5.431,6.729c0,15.778-23.75,51.234-34.271,51.234
		c-11.423,0,18.371-48.786,18.371-49.819c0-3.7-13.139,0-13.139,0c-9.615,9.614-16.202,33.076-16.202,40.488
		c0,8.421,4.636,13.909,10.404,13.909c10.519,0.115,37.719-32.569,37.719-55.136c0-4.735-2.412-10.12-7.295-10.12
		c-7.464,0-10.066,5.428-10.066,9.84c0,5.994,5.079,9.997,16.453,9.997c17.471,0,34.442-16.615,34.442-29.903
		c0-3.733-0.226-7.351-4.297-7.351c-7.124,0-19.228,15.273-19.228,26.353c0,7.803,5.954,12.213,13.741,12.213
		c4.75,0-11.138,24.429-11.138,35.063c0,6.332,2.637,10.685,8.22,10.685c20.467,0,38.809-55.475,53.306-55.475L529.613,350.992z"/>
	<path fill="#00A098" d="M351.547,348.34c-20.582,0-37.999,28.669-37.999,45.806c0,14.477,10.941,15.606,14.589,15.606
		c12.041,0,29.142-19.401,42.704-32.967c-0.903-1.181,0.796-9.696,0.566-6.729c-0.226,2.967-29.094,36.869-41.459,36.869
		c-23.018,0,12.677-55.19,22.844-55.19c5.032,0,4.249,6.38,3.167,7.462c-3.842,0-7.963,3.34-7.963,7.238
		c0,1.669,0.623,4.244,3.788,4.244c4.074,0,8.472-7.523,8.472-12.84C360.256,352.156,357.147,348.34,351.547,348.34z"/>
	<path fill="#00A098" d="M408.035,272.846c0,0-68.129,136.906-32.966,136.906c10.179,0,25.587-20.442,35.171-30.029
		c9.587-9.583,7.806-11.702,0-3.899c-7.803,7.804-24.089,30.028-33.928,29.745c-9.126,0,7.689-57.229,46.822-131.534
		c0.783-1.486,1.372-3.351-0.226-3.394C417.255,270.49,408.035,272.846,408.035,272.846z"/>
	<path fill="#00A098" d="M936.889,272.846c0,0-68.134,136.906-32.971,136.906c10.18,0,25.59-20.442,35.176-30.029
		c9.586-9.583,7.805-11.702,0-3.899c-7.803,7.804-24.09,30.028-33.93,29.745c-9.125,0,7.689-57.229,46.822-131.534
		c0.782-1.486,1.37-3.351-0.225-3.394C946.104,270.49,936.889,272.846,936.889,272.846z"/>
	<path fill="#00A098" d="M593.805,406.361c-11.295,0,23.581-60.058,18.436-60.058c-2.831,0-10.036-0.765-13.602,1.442
		c-1.265,0.784-2.289,2.883-3.563,5.598c0-1.525-2.288-7.491-13.823-7.491c-18.324,0-34.779,36.076-34.779,49.988
		c0,9.247,3.731,13.854,8.762,13.854c8.88,0,24.956-25.093,28.137-28.273c3.618-3.618-12.525,28.331,6.702,28.331
		c17.304,0,30.026-30.479,30.704-31.554C620.778,378.198,605.102,406.361,593.805,406.361z M559.197,403.307
		c-11.62,0,9.84-53.61,24.429-53.61c4.343,0,9.388,1.444,9.388,7.918C593.014,368.924,563.746,403.307,559.197,403.307z"/>
	<path fill="#00A098" d="M179.541,500.801c0-8.393,47.504-59.354,145.9-59.354c102.466,0,169.421,51.88,237.848,51.88
		c38.339,0,64.284-19.342,64.284-19.342s-16.445,14.433-63.608,14.433c-76.568,0-134.698-56.383-243.625-56.383
		C233.026,432.035,179.541,484.424,179.541,500.801z"/>
	<path fill="#00A098" d="M740.508,367.538c0,0-6.694-17.223-37.467-17.226c-29.848-0.002-62.485,31.33-62.485,73.101
		c0,42.721,36.51,70.251,75.747,70.251c55.312,0,91.158-37.344,91.158-83.97c0-53.162-69.844-107.399-69.844-154.863
		c0-47.466,35.179-63.076,60.119-63.076c29.373,0,50.665,26.956,50.665,42.581c0,27.056-26.458,41.056-41.847,41.056
		c-15.387,0-32.117-8.144-32.117-19.794c0,19.115,21.26,23.012,32.79,23.012c21.043,0,44.116-18.261,44.116-44.046
		c0-25.787-24.881-47.05-53.383-47.05c-35.004,0-74.646,28.276-74.646,73.515s70.409,104.402,70.409,155.068
		c0,44.439-29.47,73.617-76.518,73.617c-42.301,0-71.816-30.085-71.816-66.049c0-39.813,29.971-69.449,58.928-69.444
		C734.174,354.221,740.508,367.538,740.508,367.538z"/>
	<path fill="#00A098" d="M740.508,367.538c0,0-22.508-35.938-54.287-35.938c-18.889,0-22.908,11.313-22.908,16.398
		c0,15.64,18.108,36.307,75.159,36.307c77.811,0,170.778-103.825,170.778-145.895c0-16.287-5.881-20.811-10.858-20.811
		c-37.552,0-78.843,178.59-78.843,190.804c2.375,0.735,4.807,0.793,8.485,0c0-7.238,25.907-59.049,36.882-59.049
		c6.331,0-26.297,60.396-6.278,60.396c20.526,0,43.825-31.554,43.825-36.98l-0.225-4.922c0,2.885-19.468,35.826-36.205,35.826
		c-13.797,0,26.364-59.068,2.615-59.068c-15.269,0-29.52,27.258-29.52,27.258s31.213-150.195,59.716-150.195
		c7.94,0,6.334,9.884,6.334,15.834c0,42.072-97.763,144.577-165.849,144.577c-46.599,0-71.447-14.885-71.447-34.771
		c0-4.753,6.574-12.769,18.109-12.769C714.832,334.542,740.508,367.538,740.508,367.538z"/>
	<path fill="#00A098" d="M940.918,409.694c-5.019,0-11.402-5.935-11.402-19.611c0-13.678,13.489-38.907,29.895-38.907
		c2.496,0,5.762,1.048,5.762,6.108c0,10.527-18.096,24.646-27.385,24.646c0,0-9.374-4.409,1.146-4.409
		c13.91,0,30.195-23.073,22.563-23.073c-10.347,0-28.912,49.535-16.338,49.535c19.679,0,67.425-57.339,67.425-70.68
		c0-0.789,0.511-5.661-2.148-5.661c-4.06,0-15.606,14.761-15.606,22.054c0,7.294,4.071,11.281,8.652,11.281
		c4.578,0,17.811-2.798,17.811-0.084c0,9.391-21.205,42.413-13.174,42.413c10.46,0,33.362-52.314,50.269-52.314l-2.654,3.228
		c-14.494,0-32.837,55.475-53.306,55.475c-5.58,0-8.22-4.353-8.22-10.685c0-10.634,15.89-35.063,11.138-35.063
		c-7.785,0-13.741-4.41-13.741-12.213c0-11.079,12.103-26.353,19.229-26.353c4.071,0,4.295,3.617,4.295,7.351
		C1015.127,350.205,960.644,409.694,940.918,409.694z"/>
	<g>
		<ellipse fill="#00A098" cx="823.787" cy="408.65" rx="4.571" ry="1.102"/>
	</g>
	<path fill="#00A098" d="M1058.386,350.992c8.339,0,8.751,6.847,8.751,10.241c0,0,8.779-10.241,19.453-10.241
		c7.521,0,9.347,5.937,9.347,7.971c0,13.975-20.827,47.765-8.838,47.765c19.847,0,57.396-38.369,57.396-77.729
		c0-43.429-60.914-44.036-67.022-44.036c-37.819,0-103.981,33.18-154.162,33.18c-34.644,0-45.502-11.197-45.502-11.197
		s8.146,8.145,45.502,8.145c58.096,0,106.843-33.252,155.701-33.252c23.752,0,68.877,9.501,68.877,47.501
		c0,30.198-29.573,80.413-65.313,80.413c-27.37,0,8.651-53.947-0.172-53.947c-15.798,0-30.877,45.976-30.877,50.893
		c-8.486,2.045-12.214-0.677-12.214-0.677s19.073-51.801,16.419-51.801L1058.386,350.992z"/>
	<path fill="#00A098" d="M780.768,493.664c0,0,36.637-67.965,128.482-67.965c81.883,0,112.192,44.108,183.334,44.108
		c65.156,0,108.471-46.598,108.471-97.038c0-26.974-22.969-57.68-63.006-57.68c-21.264,0-22.279,14.476-22.279,17.643
		c0,27.821,37.546,55.419,66.273,55.419c-21.488,0-70.073-19.675-70.073-55.864c0-20.592,22.924-19.575,26.42-19.575
		c34.83,0,67.858,24.091,67.858,62.545c0,57.907-45.917,104.963-112.625,104.963c-71.477,0-112.902-46.379-184.373-46.379
		C840.477,433.842,806.163,468.269,780.768,493.664z"/>
</g>
</svg>
