<?xml version="1.0" encoding="utf-8"?>
<!-- Generator: Adobe Illustrator 16.0.0, SVG Export Plug-In . SVG Version: 6.00 Build 0)  -->
<!DOCTYPE svg PUBLIC "-//W3C//DTD SVG 1.1//EN" "http://www.w3.org/Graphics/SVG/1.1/DTD/svg11.dtd">
<svg version="1.1" xmlns="http://www.w3.org/2000/svg" xmlns:xlink="http://www.w3.org/1999/xlink" x="0px" y="0px" width="348px"
	 height="336px" viewBox="0 0 348 336" enable-background="new 0 0 348 336" xml:space="preserve">
<g id="Layer_1" display="none">
</g>
<g id="Layer_2">
	<g>
		<path fill="#D71A60" d="M337.991,159.091c0-8.874-11.879-16.543-29.661-16.543c-28.72,0-35.278,7.048-87.021,7.048
			c-32.561,0-60.076-19.399-60.076-45.815c0-10.215,2.369-18.369,7.535-18.369c9.488,0,12.897,11.389,12.897,21.157
			c0,51.014-63.408,133.985-81.829,152.403c3.064-3.061,15.272-47.877,15.272-78.833c0-84.611-24.628-97.409-53.659-97.409
			c-40.586,0-51.178,59.576-7.152,59.576c-30.678,0-33.021-56.683,6.736-56.683c37.359,0,43.891,51.659,43.891,95.755
			c0,40.724-15.801,89.381-18.324,91.908c10.451,0,98.124-104.977,98.124-167.302c0-15.412-8.532-23.255-15.956-23.255
			c-7.434,0-11.789,8.873-11.789,21.56c0,25.491,28.586,48.194,63.373,48.194c48.297,0,65.035-7.977,88.701-7.977
			C325.56,144.507,337.991,151.934,337.991,159.091z"/>
		<path fill="#D71A60" d="M212.2,194.986c0,0-4.214-10.849-23.604-10.849c-18.801,0-39.367,19.734-39.367,46.049
			c0,26.92,23.004,44.26,47.725,44.26c34.844,0,57.429-23.525,57.429-52.897c0-33.499-43.997-67.665-43.997-97.565
			c0-29.909,22.157-39.739,37.871-39.739c18.505,0,31.922,16.978,31.922,26.826c0,17.046-16.668,25.864-26.367,25.864
			c-9.693,0-20.234-5.13-20.234-12.473c0,12.047,13.395,14.5,20.66,14.5c13.26,0,27.791-11.504,27.791-27.752
			c0-16.244-15.674-29.639-33.625-29.639c-22.058,0-47.033,17.813-47.033,46.315c0,28.5,44.359,65.774,44.359,97.692
			c0,28-18.564,46.381-48.207,46.381c-26.648,0-45.244-18.955-45.244-41.611c0-25.085,18.881-43.755,37.125-43.752
			C208.213,186.597,212.2,194.986,212.2,194.986z"/>
	</g>
</g>
</svg>
